<svg width="289" height="369" viewBox="0 0 289 369" fill="none" xmlns="http://www.w3.org/2000/svg">
<path fill-rule="evenodd" clip-rule="evenodd" d="M145 368C129.333 353.333 92.3 317 69.5 289C41 254 -1.00001 193.5 0.999994 136.5C2.99999 79.5 45.5 0.5 145 0.5C244.5 0.5 288.5 82.463 288.5 136.5C288.5 208.328 246.203 259.256 221.676 288.788L221.5 289C201.9 312.6 162.333 351.5 145 368ZM145 256C207.408 256 258 205.408 258 143C258 80.5918 207.408 30 145 30C82.5918 30 32 80.5918 32 143C32 205.408 82.5918 256 145 256Z" fill="#9048F4"/>
<path d="M69.5 289L69.8877 288.684L69.8877 288.684L69.5 289ZM145 368L144.658 368.365L145.003 368.688L145.345 368.362L145 368ZM0.999994 136.5L0.500302 136.482L0.999994 136.5ZM221.676 288.788L221.292 288.468L221.292 288.468L221.676 288.788ZM221.5 289L221.885 289.319L221.885 289.319L221.5 289ZM69.1123 289.316C91.9343 317.343 128.988 353.695 144.658 368.365L145.342 367.635C129.679 352.972 92.6657 316.657 69.8877 288.684L69.1123 289.316ZM0.500302 136.482C-0.503978 165.104 9.53727 194.569 23.3687 221.23C37.2031 247.897 54.8512 271.802 69.1123 289.316L69.8877 288.684C55.6488 271.198 38.0469 247.353 24.2563 220.77C10.4627 194.181 0.503966 164.896 1.49969 136.518L0.500302 136.482ZM145 0C95.1024 0 59.4655 19.8149 36.0598 46.7974C12.666 73.766 1.50396 107.878 0.500302 136.482L1.49969 136.518C2.49603 108.122 13.5839 74.234 36.8152 47.4526C60.0345 20.6851 95.3976 1 145 1V0ZM289 136.5C289 82.2601 244.844 0 145 0V1C244.156 1 288 82.6658 288 136.5H289ZM222.061 289.107C246.583 259.581 289 208.527 289 136.5H288C288 208.129 245.823 258.93 221.292 288.468L222.061 289.107ZM221.885 289.319L222.061 289.107L221.292 288.468L221.115 288.681L221.885 289.319ZM145.345 368.362C162.677 351.863 202.264 312.945 221.885 289.319L221.115 288.681C201.536 312.255 161.99 351.137 144.655 367.638L145.345 368.362ZM257.5 143C257.5 205.132 207.132 255.5 145 255.5V256.5C207.684 256.5 258.5 205.684 258.5 143H257.5ZM145 30.5C207.132 30.5 257.5 80.868 257.5 143H258.5C258.5 80.3157 207.684 29.5 145 29.5V30.5ZM32.5 143C32.5 80.868 82.868 30.5 145 30.5V29.5C82.3157 29.5 31.5 80.3157 31.5 143H32.5ZM145 255.5C82.868 255.5 32.5 205.132 32.5 143H31.5C31.5 205.684 82.3157 256.5 145 256.5V255.5Z" fill="#9048F4"/>
<mask id="path-3-inside-1_1_2" fill="white">
<path fill-rule="evenodd" clip-rule="evenodd" d="M209 143C209 182.765 176.765 215 137 215C97.2355 215 65 182.765 65 143C65 103.235 97.2355 71 137 71C176.765 71 209 103.235 209 143ZM153 111C153 119.284 146.284 126 138 126C129.716 126 123 119.284 123 111C123 102.716 129.716 96 138 96C146.284 96 153 102.716 153 111ZM169 158C177.284 158 184 151.284 184 143C184 134.716 177.284 128 169 128C160.716 128 154 134.716 154 143C154 151.284 160.716 158 169 158ZM119 143C119 151.284 112.284 158 104 158C95.7157 158 89 151.284 89 143C89 134.716 95.7157 128 104 128C112.284 128 119 134.716 119 143ZM138 188C146.284 188 153 181.284 153 173C153 164.716 146.284 158 138 158C129.716 158 123 164.716 123 173C123 181.284 129.716 188 138 188Z"/>
</mask>
<path fill-rule="evenodd" clip-rule="evenodd" d="M209 143C209 182.765 176.765 215 137 215C97.2355 215 65 182.765 65 143C65 103.235 97.2355 71 137 71C176.765 71 209 103.235 209 143ZM153 111C153 119.284 146.284 126 138 126C129.716 126 123 119.284 123 111C123 102.716 129.716 96 138 96C146.284 96 153 102.716 153 111ZM169 158C177.284 158 184 151.284 184 143C184 134.716 177.284 128 169 128C160.716 128 154 134.716 154 143C154 151.284 160.716 158 169 158ZM119 143C119 151.284 112.284 158 104 158C95.7157 158 89 151.284 89 143C89 134.716 95.7157 128 104 128C112.284 128 119 134.716 119 143ZM138 188C146.284 188 153 181.284 153 173C153 164.716 146.284 158 138 158C129.716 158 123 164.716 123 173C123 181.284 129.716 188 138 188Z" fill="#9048F4"/>
<path d="M137 216C177.317 216 210 183.317 210 143H208C208 182.212 176.212 214 137 214V216ZM64 143C64 183.317 96.6832 216 137 216V214C97.7878 214 66 182.212 66 143H64ZM137 70C96.6832 70 64 102.683 64 143H66C66 103.788 97.7878 72 137 72V70ZM210 143C210 102.683 177.317 70 137 70V72C176.212 72 208 103.788 208 143H210ZM138 127C146.837 127 154 119.837 154 111H152C152 118.732 145.732 125 138 125V127ZM122 111C122 119.837 129.163 127 138 127V125C130.268 125 124 118.732 124 111H122ZM138 95C129.163 95 122 102.163 122 111H124C124 103.268 130.268 97 138 97V95ZM154 111C154 102.163 146.837 95 138 95V97C145.732 97 152 103.268 152 111H154ZM183 143C183 150.732 176.732 157 169 157V159C177.837 159 185 151.837 185 143H183ZM169 129C176.732 129 183 135.268 183 143H185C185 134.163 177.837 127 169 127V129ZM155 143C155 135.268 161.268 129 169 129V127C160.163 127 153 134.163 153 143H155ZM169 157C161.268 157 155 150.732 155 143H153C153 151.837 160.163 159 169 159V157ZM104 159C112.837 159 120 151.837 120 143H118C118 150.732 111.732 157 104 157V159ZM88 143C88 151.837 95.1634 159 104 159V157C96.268 157 90 150.732 90 143H88ZM104 127C95.1634 127 88 134.163 88 143H90C90 135.268 96.268 129 104 129V127ZM120 143C120 134.163 112.837 127 104 127V129C111.732 129 118 135.268 118 143H120ZM152 173C152 180.732 145.732 187 138 187V189C146.837 189 154 181.837 154 173H152ZM138 159C145.732 159 152 165.268 152 173H154C154 164.163 146.837 157 138 157V159ZM124 173C124 165.268 130.268 159 138 159V157C129.163 157 122 164.163 122 173H124ZM138 187C130.268 187 124 180.732 124 173H122C122 181.837 129.163 189 138 189V187Z" fill="#9048F4" mask="url(#path-3-inside-1_1_2)"/>
<circle cx="137.5" cy="143.5" r="6.5" fill="white"/>
<path d="M137 199H216C219.866 199 223 202.134 223 206V206C223 209.866 219.866 213 216 213H137V199Z" fill="#9048F4"/>
</svg>
