<svg width="290" height="370" viewBox="0 0 290 370" fill="none" xmlns="http://www.w3.org/2000/svg">
<mask id="path-1-inside-1_3_30" fill="white">
<path fill-rule="evenodd" clip-rule="evenodd" d="M210 141C210 180.765 177.765 213 138 213C98.2355 213 66 180.765 66 141C66 101.235 98.2355 69 138 69C177.765 69 210 101.235 210 141ZM154 109C154 117.284 147.284 124 139 124C130.716 124 124 117.284 124 109C124 100.716 130.716 94 139 94C147.284 94 154 100.716 154 109ZM170 156C178.284 156 185 149.284 185 141C185 132.716 178.284 126 170 126C161.716 126 155 132.716 155 141C155 149.284 161.716 156 170 156ZM120 141C120 149.284 113.284 156 105 156C96.7157 156 90 149.284 90 141C90 132.716 96.7157 126 105 126C113.284 126 120 132.716 120 141ZM139 186C147.284 186 154 179.284 154 171C154 162.716 147.284 156 139 156C130.716 156 124 162.716 124 171C124 179.284 130.716 186 139 186Z"/>
</mask>
<path fill-rule="evenodd" clip-rule="evenodd" d="M210 141C210 180.765 177.765 213 138 213C98.2355 213 66 180.765 66 141C66 101.235 98.2355 69 138 69C177.765 69 210 101.235 210 141ZM154 109C154 117.284 147.284 124 139 124C130.716 124 124 117.284 124 109C124 100.716 130.716 94 139 94C147.284 94 154 100.716 154 109ZM170 156C178.284 156 185 149.284 185 141C185 132.716 178.284 126 170 126C161.716 126 155 132.716 155 141C155 149.284 161.716 156 170 156ZM120 141C120 149.284 113.284 156 105 156C96.7157 156 90 149.284 90 141C90 132.716 96.7157 126 105 126C113.284 126 120 132.716 120 141ZM139 186C147.284 186 154 179.284 154 171C154 162.716 147.284 156 139 156C130.716 156 124 162.716 124 171C124 179.284 130.716 186 139 186Z" fill="#D89313"/>
<path d="M138 214C178.317 214 211 181.317 211 141H209C209 180.212 177.212 212 138 212V214ZM65 141C65 181.317 97.6832 214 138 214V212C98.7878 212 67 180.212 67 141H65ZM138 68C97.6832 68 65 100.683 65 141H67C67 101.788 98.7878 70 138 70V68ZM211 141C211 100.683 178.317 68 138 68V70C177.212 70 209 101.788 209 141H211ZM139 125C147.837 125 155 117.837 155 109H153C153 116.732 146.732 123 139 123V125ZM123 109C123 117.837 130.163 125 139 125V123C131.268 123 125 116.732 125 109H123ZM139 93C130.163 93 123 100.163 123 109H125C125 101.268 131.268 95 139 95V93ZM155 109C155 100.163 147.837 93 139 93V95C146.732 95 153 101.268 153 109H155ZM184 141C184 148.732 177.732 155 170 155V157C178.837 157 186 149.837 186 141H184ZM170 127C177.732 127 184 133.268 184 141H186C186 132.163 178.837 125 170 125V127ZM156 141C156 133.268 162.268 127 170 127V125C161.163 125 154 132.163 154 141H156ZM170 155C162.268 155 156 148.732 156 141H154C154 149.837 161.163 157 170 157V155ZM105 157C113.837 157 121 149.837 121 141H119C119 148.732 112.732 155 105 155V157ZM89 141C89 149.837 96.1634 157 105 157V155C97.268 155 91 148.732 91 141H89ZM105 125C96.1634 125 89 132.163 89 141H91C91 133.268 97.268 127 105 127V125ZM121 141C121 132.163 113.837 125 105 125V127C112.732 127 119 133.268 119 141H121ZM153 171C153 178.732 146.732 185 139 185V187C147.837 187 155 179.837 155 171H153ZM139 157C146.732 157 153 163.268 153 171H155C155 162.163 147.837 155 139 155V157ZM125 171C125 163.268 131.268 157 139 157V155C130.163 155 123 162.163 123 171H125ZM139 185C131.268 185 125 178.732 125 171H123C123 179.837 130.163 187 139 187V185Z" fill="#D89313" mask="url(#path-1-inside-1_3_30)"/>
<circle cx="138.5" cy="141.5" r="6.5" fill="white"/>
<path d="M138 197H217C220.866 197 224 200.134 224 204V204C224 207.866 220.866 211 217 211H138V197Z" fill="#D89313"/>
<path fill-rule="evenodd" clip-rule="evenodd" d="M145.069 368.5C129.402 353.833 92.3689 317.5 69.5689 289.5C41.0689 254.5 -0.931134 194 1.06887 137C3.06887 80 45.5689 1 145.069 1C244.569 1 288.569 82.963 288.569 137C288.569 208.828 246.272 259.756 221.745 289.288L221.569 289.5C201.969 313.1 162.402 352 145.069 368.5ZM145 260C207.408 260 258 209.408 258 147C258 84.5918 207.408 34 145 34C82.5918 34 32 84.5918 32 147C32 209.408 82.5918 260 145 260Z" fill="#D89313"/>
<path d="M69.5689 289.5L69.9566 289.184L69.5689 289.5ZM145.069 368.5L144.727 368.865L145.072 369.188L145.414 368.862L145.069 368.5ZM1.06887 137L0.569174 136.982L1.06887 137ZM221.745 289.288L221.36 288.968L221.36 288.968L221.745 289.288ZM221.569 289.5L221.954 289.819L221.954 289.819L221.569 289.5ZM69.1811 289.816C92.0032 317.843 129.057 354.195 144.727 368.865L145.411 368.135C129.748 353.472 92.7345 317.157 69.9566 289.184L69.1811 289.816ZM0.569174 136.982C-0.435106 165.604 9.60614 195.069 23.4375 221.73C37.2719 248.397 54.9201 272.302 69.1811 289.816L69.9566 289.184C55.7176 271.698 38.1158 247.853 24.3252 221.27C10.5316 194.681 0.572839 165.396 1.56856 137.018L0.569174 136.982ZM145.069 0.5C95.1713 0.5 59.5344 20.3149 36.1287 47.2974C12.7349 74.266 1.57283 108.378 0.569174 136.982L1.56856 137.018C2.5649 108.622 13.6528 74.734 36.8841 47.9526C60.1033 21.1851 95.4664 1.5 145.069 1.5V0.5ZM289.069 137C289.069 82.7601 244.913 0.5 145.069 0.5V1.5C244.225 1.5 288.069 83.1658 288.069 137H289.069ZM222.13 289.607C246.652 260.081 289.069 209.027 289.069 137H288.069C288.069 208.629 245.892 259.43 221.36 288.968L222.13 289.607ZM221.954 289.819L222.13 289.607L221.36 288.968L221.184 289.181L221.954 289.819ZM145.414 368.862C162.746 352.363 202.332 313.445 221.954 289.819L221.184 289.181C201.605 312.755 162.059 351.637 144.724 368.138L145.414 368.862ZM257.5 147C257.5 209.132 207.132 259.5 145 259.5V260.5C207.684 260.5 258.5 209.684 258.5 147H257.5ZM145 34.5C207.132 34.5 257.5 84.868 257.5 147H258.5C258.5 84.3157 207.684 33.5 145 33.5V34.5ZM32.5 147C32.5 84.868 82.868 34.5 145 34.5V33.5C82.3157 33.5 31.5 84.3157 31.5 147H32.5ZM145 259.5C82.868 259.5 32.5 209.132 32.5 147H31.5C31.5 209.684 82.3157 260.5 145 260.5V259.5Z" fill="#D89313"/>
</svg>
