<svg width="512" height="416" viewBox="0 0 512 416" fill="none" xmlns="http://www.w3.org/2000/svg">
<path d="M416 0C371.812 0 336 35.813 336 80C336 91.938 338.625 103.281 343.312 113.438L416 256L488.688 113.437C493.375 103.281 496 91.938 496 80C496 35.813 460.188 0 416 0ZM416 128C389.5 128 368 106.5 368 80C368 53.5 389.5 32 416 32C442.5 32 464 53.5 464 80C464 106.5 442.5 128 416 128ZM439.938 279.469L469.063 337.688L395.219 374.594L370.469 250.782L374.625 246.626L375.063 246.188L359.813 216.188L352 224L256 160L160 224L96 160L0 352L128 416L256 352L384 416L512 352L458 244.031L439.938 279.469ZM116.75 374.594L42.937 337.688L104.75 214L137.375 246.625L141.531 250.781L116.75 374.594ZM240 324.219L150.5 368.969L173.625 253.375L177.75 250.625L240 209.125V324.219ZM272 324.219V209.125L334.25 250.625L338.344 253.375L361.469 368.969L272 324.219Z" fill="white"/>
</svg>
