<svg width="290" height="370" viewBox="0 0 290 370" fill="none" xmlns="http://www.w3.org/2000/svg">
<circle cx="138" cy="141" r="71.5" fill="black" stroke="black"/>
<circle cx="139" cy="109" r="15" fill="white"/>
<circle cx="170" cy="141" r="15" fill="white"/>
<circle cx="105" cy="141" r="15" fill="white"/>
<circle cx="139" cy="171" r="15" fill="white"/>
<circle cx="138.5" cy="141.5" r="6.5" fill="white"/>
<path d="M138 197H217C220.866 197 224 200.134 224 204V204C224 207.866 220.866 211 217 211H138V197Z" fill="black"/>
<path fill-rule="evenodd" clip-rule="evenodd" d="M145.069 368.5C129.402 353.833 92.3689 317.5 69.5689 289.5C41.0689 254.5 -0.931128 194 1.06887 137C3.06887 80 45.5689 1 145.069 1C244.569 1 288.569 82.963 288.569 137C288.569 208.828 246.272 259.756 221.745 289.288L221.569 289.5C201.969 313.1 162.402 352 145.069 368.5ZM145 260C207.408 260 258 209.408 258 147C258 84.5918 207.408 34 145 34C82.5918 34 32 84.5918 32 147C32 209.408 82.5918 260 145 260Z" fill="black"/>
<path d="M69.5689 289.5L69.9566 289.184L69.9566 289.184L69.5689 289.5ZM145.069 368.5L144.727 368.865L145.072 369.188L145.414 368.862L145.069 368.5ZM1.06888 137L0.569186 136.982L1.06888 137ZM221.745 289.288L221.36 288.968L221.36 288.968L221.745 289.288ZM221.569 289.5L221.954 289.819L221.954 289.819L221.569 289.5ZM69.1812 289.816C92.0032 317.843 129.057 354.195 144.727 368.865L145.411 368.135C129.748 353.472 92.7345 317.157 69.9566 289.184L69.1812 289.816ZM0.569186 136.982C-0.435094 165.604 9.60615 195.069 23.4375 221.73C37.2719 248.397 54.9201 272.302 69.1812 289.816L69.9566 289.184C55.7177 271.698 38.1158 247.853 24.3252 221.27C10.5316 194.681 0.572851 165.396 1.56857 137.018L0.569186 136.982ZM145.069 0.5C95.1713 0.5 59.5344 20.3149 36.1287 47.2974C12.7349 74.266 1.57284 108.378 0.569186 136.982L1.56857 137.018C2.56491 108.622 13.6528 74.734 36.8841 47.9526C60.1034 21.1851 95.4665 1.5 145.069 1.5V0.5ZM289.069 137C289.069 82.7601 244.913 0.5 145.069 0.5V1.5C244.225 1.5 288.069 83.1658 288.069 137H289.069ZM222.13 289.607C246.652 260.081 289.069 209.027 289.069 137H288.069C288.069 208.629 245.892 259.43 221.36 288.968L222.13 289.607ZM221.954 289.819L222.13 289.607L221.36 288.968L221.184 289.181L221.954 289.819ZM145.414 368.862C162.746 352.363 202.332 313.445 221.954 289.819L221.184 289.181C201.605 312.755 162.059 351.637 144.724 368.138L145.414 368.862ZM257.5 147C257.5 209.132 207.132 259.5 145 259.5V260.5C207.684 260.5 258.5 209.684 258.5 147H257.5ZM145 34.5C207.132 34.5 257.5 84.868 257.5 147H258.5C258.5 84.3157 207.684 33.5 145 33.5V34.5ZM32.5 147C32.5 84.868 82.868 34.5 145 34.5V33.5C82.3157 33.5 31.5 84.3157 31.5 147H32.5ZM145 259.5C82.868 259.5 32.5 209.132 32.5 147H31.5C31.5 209.684 82.3157 260.5 145 260.5V259.5Z" fill="black"/>
</svg>
