<svg width="612" height="612" viewBox="0 0 612 612" fill="none" xmlns="http://www.w3.org/2000/svg">
<path d="M573.75 267.75L459 344.25C459 321.032 448.443 300.492 432.11 286.454C470.991 263.026 497.25 220.817 497.25 172.125C497.25 98.187 437.312 38.25 363.375 38.25C289.438 38.25 229.5 98.188 229.5 172.125C229.5 209.629 245.01 243.442 269.873 267.75H199.722C218.044 247.42 229.5 220.779 229.5 191.25C229.5 127.87 178.13 76.5 114.75 76.5C51.37 76.5 0 127.87 0 191.25C0 225.828 15.625 256.466 39.818 277.504C16.199 290.528 0 315.371 0 344.25V497.25C0 539.497 34.253 573.75 76.5 573.75H382.5C424.747 573.75 459 539.497 459 497.25L573.75 573.75C594.883 573.75 612 556.633 612 535.5V306C612 284.867 594.883 267.75 573.75 267.75ZM114.75 267.75C72.503 267.75 38.25 233.497 38.25 191.25C38.25 149.003 72.503 114.75 114.75 114.75C156.997 114.75 191.25 149.003 191.25 191.25C191.25 233.497 156.997 267.75 114.75 267.75ZM363.375 267.96C310.437 267.96 267.54 225.043 267.54 172.125C267.54 119.187 310.457 76.29 363.375 76.29C416.293 76.29 459.21 119.187 459.21 172.125C459.21 225.063 416.312 267.96 363.375 267.96Z" fill="#9CA3AF"/>
</svg>
